<svg width="191" height="72" viewBox="0 0 191 72" fill="none" xmlns="http://www.w3.org/2000/svg">
<path d="M1.99037 39V12.1301H8.79078C11.135 12.1301 12.9595 12.4286 14.2643 13.0257C15.5691 13.6007 16.4869 14.5185 17.0176 15.7791C17.5484 17.0175 17.8138 18.6319 17.8138 20.6223V30.3751C17.8138 32.3876 17.5484 34.0351 17.0176 35.3178C16.4869 36.5784 15.5691 37.5072 14.2643 38.1043C12.9816 38.7014 11.1792 39 8.85713 39H1.99037ZM7.92829 34.8866H8.85713C9.76385 34.8866 10.4162 34.7539 10.8143 34.4885C11.2124 34.2231 11.4557 33.825 11.5441 33.2943C11.6547 32.7635 11.71 32.1001 11.71 31.3039V19.5939C11.71 18.7978 11.6436 18.1564 11.5109 17.6699C11.4004 17.1834 11.146 16.8295 10.748 16.6084C10.3499 16.3872 9.70856 16.2767 8.82396 16.2767H7.92829V34.8866ZM23.0862 39V12.1301H35.1611V16.1771H29.0241V22.8449H33.7015V26.9583H29.0241V34.9861H35.2274V39H23.0862ZM43.1645 39L38.3213 12.1301H43.3967L46.2827 30.3751L48.9697 12.1301H54.3437L49.4342 39H43.1645ZM66.0737 39.3981C64.0391 39.3981 62.4247 39.0332 61.2304 38.3034C60.0583 37.5515 59.229 36.512 58.7425 35.1851C58.256 33.8361 58.0127 32.2549 58.0127 30.4414V20.755C58.0127 18.8973 58.256 17.305 58.7425 15.9781C59.229 14.6291 60.0583 13.5897 61.2304 12.8599C62.4247 12.1301 64.0391 11.7652 66.0737 11.7652C68.064 11.7652 69.6121 12.0969 70.7179 12.7603C71.8457 13.4017 72.6419 14.3084 73.1063 15.4805C73.5707 16.6526 73.8029 18.0016 73.8029 19.5276V21.8497H67.9977V19.1627C67.9977 18.6319 67.9645 18.1233 67.8982 17.6367C67.8539 17.1502 67.6991 16.7521 67.4337 16.4425C67.1684 16.1108 66.715 15.9449 66.0737 15.9449C65.4544 15.9449 64.99 16.1108 64.6804 16.4425C64.3929 16.7742 64.2049 17.1944 64.1165 17.7031C64.0501 18.1896 64.017 18.7093 64.017 19.2622V31.901C64.017 32.4981 64.0612 33.051 64.1496 33.5597C64.2602 34.0462 64.4593 34.4443 64.7468 34.7539C65.0564 35.0414 65.4987 35.1851 66.0737 35.1851C66.6929 35.1851 67.1352 35.0303 67.4006 34.7207C67.666 34.389 67.8318 33.9688 67.8982 33.4601C67.9645 32.9515 67.9977 32.4318 67.9977 31.901V29.0813H73.8029V31.4034C73.8029 32.9294 73.5707 34.3005 73.1063 35.5169C72.664 36.7111 71.8789 37.662 70.751 38.3697C69.6453 39.0553 68.0861 39.3981 66.0737 39.3981ZM86.4244 39.3981C84.4119 39.3981 82.8196 39.0442 81.6475 38.3365C80.4754 37.6289 79.635 36.6116 79.1264 35.2847C78.6177 33.9577 78.3634 32.3765 78.3634 30.5409V20.5559C78.3634 18.6983 78.6177 17.117 79.1264 15.8122C79.635 14.5074 80.4754 13.5123 81.6475 12.8267C82.8196 12.119 84.4119 11.7652 86.4244 11.7652C88.459 11.7652 90.0623 12.119 91.2344 12.8267C92.4286 13.5123 93.2801 14.5074 93.7887 15.8122C94.2974 17.117 94.5517 18.6983 94.5517 20.5559V30.5409C94.5517 32.3765 94.2974 33.9577 93.7887 35.2847C93.2801 36.6116 92.4286 37.6289 91.2344 38.3365C90.0623 39.0442 88.459 39.3981 86.4244 39.3981ZM86.4244 35.1851C87.0436 35.1851 87.497 35.0303 87.7845 34.7207C88.072 34.4111 88.2599 34.013 88.3484 33.5265C88.4369 33.04 88.4811 32.5424 88.4811 32.0337V19.0963C88.4811 18.5656 88.4369 18.068 88.3484 17.6036C88.2599 17.117 88.072 16.719 87.7845 16.4093C87.497 16.0997 87.0436 15.9449 86.4244 15.9449C85.8494 15.9449 85.4181 16.0997 85.1306 16.4093C84.8431 16.719 84.6552 17.117 84.5667 17.6036C84.4782 18.068 84.434 18.5656 84.434 19.0963V32.0337C84.434 32.5424 84.4672 33.04 84.5335 33.5265C84.622 34.013 84.7989 34.4111 85.0643 34.7207C85.3518 35.0303 85.8052 35.1851 86.4244 35.1851ZM99.8241 39V12.1301H104.004L109.511 25.0674V12.1301H114.42V39H110.406L104.9 25.0674V39H99.8241ZM120.078 39V12.1301H124.257L129.764 25.0674V12.1301H134.674V39H130.66L125.153 25.0674V39H120.078ZM140.331 39V12.1301H152.406V16.1771H146.269V22.8449H150.946V26.9583H146.269V34.9861H152.472V39H140.331ZM164.523 39.3981C162.488 39.3981 160.874 39.0332 159.68 38.3034C158.508 37.5515 157.678 36.512 157.192 35.1851C156.705 33.8361 156.462 32.2549 156.462 30.4414V20.755C156.462 18.8973 156.705 17.305 157.192 15.9781C157.678 14.6291 158.508 13.5897 159.68 12.8599C160.874 12.1301 162.488 11.7652 164.523 11.7652C166.513 11.7652 168.061 12.0969 169.167 12.7603C170.295 13.4017 171.091 14.3084 171.556 15.4805C172.02 16.6526 172.252 18.0016 172.252 19.5276V21.8497H166.447V19.1627C166.447 18.6319 166.414 18.1233 166.347 17.6367C166.303 17.1502 166.148 16.7521 165.883 16.4425C165.618 16.1108 165.164 15.9449 164.523 15.9449C163.904 15.9449 163.439 16.1108 163.13 16.4425C162.842 16.7742 162.654 17.1944 162.566 17.7031C162.499 18.1896 162.466 18.7093 162.466 19.2622V31.901C162.466 32.4981 162.51 33.051 162.599 33.5597C162.709 34.0462 162.909 34.4443 163.196 34.7539C163.506 35.0414 163.948 35.1851 164.523 35.1851C165.142 35.1851 165.584 35.0303 165.85 34.7207C166.115 34.389 166.281 33.9688 166.347 33.4601C166.414 32.9515 166.447 32.4318 166.447 31.901V29.0813H172.252V31.4034C172.252 32.9294 172.02 34.3005 171.556 35.5169C171.113 36.7111 170.328 37.662 169.2 38.3697C168.095 39.0553 166.535 39.3981 164.523 39.3981ZM179.599 39V16.542H175.552V12.1301H189.584V16.542H185.57V39H179.599Z" fill="white"/>
<path fill-rule="evenodd" clip-rule="evenodd" d="M190.122 46.8566H139.118V71.7361H190.122V46.8566ZM152.182 51.878V68H155.745V51.878H152.182ZM160.896 67.7014C161.572 68.0597 162.415 68.2388 163.423 68.2388C164.286 68.2388 165.029 68.0597 165.653 67.7014C166.29 67.3432 166.781 66.8589 167.126 66.2485C167.471 65.6248 167.643 64.9348 167.643 64.1785C167.643 63.0639 167.398 62.1284 166.907 61.3721C166.429 60.6157 165.838 59.939 165.135 59.3419L163.802 58.1676C163.337 57.7563 162.959 57.3648 162.667 56.9933C162.388 56.6085 162.249 56.1175 162.249 55.5204C162.249 55.2418 162.322 54.9631 162.468 54.6845C162.627 54.4058 162.873 54.2665 163.204 54.2665C163.51 54.2665 163.735 54.366 163.881 54.565C164.027 54.7508 164.12 55.0228 164.16 55.3811C164.213 55.7261 164.246 56.1374 164.259 56.6151L167.325 56.2369C167.311 55.7593 167.252 55.2617 167.145 54.7442C167.053 54.2134 166.867 53.7158 166.588 53.2514C166.323 52.7737 165.925 52.3889 165.394 52.097C164.876 51.8051 164.186 51.6591 163.324 51.6591C161.931 51.6591 160.829 52.024 160.02 52.7538C159.21 53.4703 158.806 54.512 158.806 55.8787C158.806 56.8473 159.011 57.6634 159.423 58.3268C159.847 58.977 160.365 59.5608 160.975 60.0783L162.369 61.2925C162.913 61.7569 163.344 62.2213 163.662 62.6857C163.981 63.1369 164.14 63.6942 164.14 64.3576C164.14 64.6363 164.08 64.9017 163.961 65.1538C163.855 65.4059 163.616 65.5319 163.244 65.5319C162.952 65.5319 162.7 65.4391 162.488 65.2533C162.289 65.0675 162.13 64.7623 162.01 64.3377C161.904 63.9131 161.844 63.3558 161.831 62.6658L158.786 63.1236C158.826 64.3178 159.018 65.2931 159.363 66.0494C159.708 66.7925 160.219 67.3432 160.896 67.7014ZM171.816 54.5252V68H175.399V54.5252H177.807V51.878H169.388V54.5252H171.816Z" fill="white"/>
</svg>
